<svg width="24" height="24" viewBox="0 0 24 24" fill="none" xmlns="http://www.w3.org/2000/svg">
<path d="M12.201 19.3763C12.0958 19.2707 12.0368 19.1276 12.037 18.9786C12.0372 18.8295 12.0965 18.6866 12.202 18.5813L17.9985 12.7987L2.85691 12.7793C2.70773 12.7791 2.56473 12.7197 2.45938 12.6141C2.35402 12.5084 2.29494 12.3653 2.29513 12.2161C2.29533 12.0669 2.35477 11.9239 2.4604 11.8186C2.56602 11.7132 2.70917 11.6541 2.85835 11.6543L17.9999 11.6737L12.2182 5.8763C12.119 5.76954 12.0651 5.62843 12.0679 5.48271C12.0706 5.33699 12.1298 5.19803 12.233 5.0951C12.3362 4.99217 12.4753 4.93331 12.6211 4.93093C12.7668 4.92854 12.9078 4.98282 13.0143 5.08231L19.7556 11.8409C19.8608 11.9465 19.9198 12.0896 19.9196 12.2386C19.9194 12.3877 19.8601 12.5306 19.7546 12.6359L12.996 19.3773C12.8904 19.4825 12.7473 19.5415 12.5983 19.5413C12.4492 19.5411 12.3063 19.4818 12.201 19.3763Z" fill="white"/>
</svg>
